<svg t="1700568914730" class="titleicon" viewBox="0 0 1280 1024" version="1.1" xmlns="http://www.w3.org/2000/svg" p-id="4276" width="200" height="200"><path d="M1046.485822 53.112897c4.54104 44.898732-52.062062 38.886651-76.749969 36.200402-24.687907-2.622291-56.794977 18.995617-73.29622 42.532274-9.977496 14.390619-18.164159 37.351651-24.048323 57.498518 104.891624-10.233329 257.368228 37.351651 342.176943 157.657228 15.030202 23.536657 27.246239 48.160605 36.903944 73.616011 38.183109 101.054125 34.089778 207.03304 4.732914 308.790707a544.732902 544.732902 0 0 1-21.234158 61.016225 406.90275 406.90275 0 0 1-65.813098 105.914957 403.12921 403.12921 0 0 1-165.204307 118.514743l-18.547909 6.587706-12.08812 1.918749H215.923245l-7.54708-0.7675-12.791662-3.38979c-104.891624-33.322278-189.956172-133.225154-195.32867-325.29195L0 674.403893l0.575625-13.23937c1.854791-27.629989 8.186663-62.743099 21.553949-101.885583a410.996082 410.996082 0 0 1 127.596823-186.054716 383.557968 383.557968 0 0 1 106.426623-62.551224c86.023923-33.514153 176.397011-35.816652 260.118436-19.827075l4.541039 0.831458 4.349165 0.895416 15.222077 3.453749 11.832287 3.197915 59.033518 18.867701-36.072486 44.770815c-15.733744 19.507284-43.875399 47.201231-83.401632 74.703302l-17.39666 11.512496-17.908326 10.744995-8.31458 4.477082 26.222906 116.404119-36.328318 9.785621-14.070828 3.453749c-25.583323 5.500414-50.974771 7.035414-74.063719-0.447709-18.803742-6.012081-42.660191-24.304157-63.830391-46.369772l-8.890205-9.657705-3.645623-4.349165-1.726874 3.709582a136.231194 136.231194 0 0 0-9.08208 30.380196c-5.756248 33.450195 8.058747 73.424137 24.815823 92.547671l4.604998 4.732914 18.036243 15.541869 6.971455 5.244581c39.334359 27.693947 79.116426 30.380196 130.986613-8.570413 20.146867-15.158119 38.694776-43.939357 54.556436-83.017883 7.16333-17.588534 13.431245-36.456235 19.315409-56.794976l3.261874-11.896246 3.261874-12.407911 9.593746-38.502901 5.756247-20.274783 5.820206-17.588535c11.256662-31.787279 26.222906-62.231433 45.858106-91.076629 51.998104-75.854552 129.707447-128.939947 236.837612-149.790356-23.152907-23.024991-58.074143-49.311855-97.728293-51.614354-90.820796-6.971455-147.935565 45.666231-155.418687 50.143313-7.611039 4.477082-32.810612 18.547909-54.684353 0-21.809783-18.547909-10.872912-83.145799 45.410399-113.270162 56.28331-30.124363 151.261396-36.328318 213.428871 14.070828 35.304986 28.71728 56.027477 68.435389 67.284139 97.47246l6.39583-0.959375 1.535-0.255833c-1.023333-23.728532 1.023333-54.492478 13.942911-96.257252C897.7188 12.819164 943.385031 4.184792 959.886274 0.795002c16.565202-3.325832 81.546842 1.918749 86.599548 52.253937z m-170.960555 215.091787l-6.779581 0.831458-17.652492 2.878124c-88.77413 16.309368-150.110147 57.882268-191.235339 118.003077-15.605827 22.769157-27.502072 47.137272-36.64811 72.848512l-4.796873 14.454577-4.15729 14.582494-13.623119 53.852895-3.645624 13.047494a632.227866 632.227866 0 0 1-22.065616 64.853724c-20.722492 51.102687-46.433731 90.884755-80.139759 116.276202-81.099134 60.888308-157.337436 55.835602-222.319075 9.913538l-10.169371-7.483122-9.785621-8.058747-7.674997-6.77958-11.192704-10.553121c-34.665402-36.136444-58.266018-102.653083-47.776855-163.2216a223.214492 223.214492 0 0 1 28.909155-76.494135c9.785621-16.501243 19.763117-29.228946 27.94978-37.991235l4.668956-4.796873 43.491649-42.212483 20.274783 57.370602c7.227289 20.466658 48.73623 64.59789 62.423308 68.947055l1.854791 0.511667 2.110624 0.319791 3.006041 0.127917-22.385408-99.647043 29.420822-13.111453a354.968605 354.968605 0 0 0 45.474356-24.304157l14.326661-9.593746 14.326661-10.425204-13.814995-1.279166a390.337549 390.337549 0 0 0-127.916614 11.384579l-17.972285 5.308539-17.780409 6.395831a305.784667 305.784667 0 0 0-84.936632 49.88748A332.839031 332.839031 0 0 0 95.937461 584.99018c-10.872912 31.787279-15.989577 60.05685-17.460618 80.779341l-0.38375 8.442497 0.255833 19.827075c2.814166 86.983298 25.32749 150.046189 61.527892 193.921588 22.065616 26.734572 46.689564 43.491649 68.819138 52.445812l9.337913 3.38979 2.942082 0.831458h745.561987l11.000829-3.837499a320.622994 320.622994 0 0 0 108.601206-70.098304l12.791661-13.111453 10.872912-12.279995c22.513324-26.734572 39.014567-53.852895 48.992063-75.598719l3.837499-8.954163 8.31458-21.234158c3.581665-9.785621 6.651664-19.25145 10.361246-32.107071 25.007698-86.791423 28.397488-176.141178-2.814166-258.711352a322.349868 322.349868 0 0 0-28.525405-57.626435c-38.758734-54.876228-94.978086-90.373088-161.942434-109.112872-42.532274-11.960203-87.750797-15.86166-112.56662-13.751036z m104.699749 166.931182a60.696434 60.696434 0 0 1 35.432902 55.963519c0 33.386236-25.775198 60.4406-57.43456 60.504558a57.562476 57.562476 0 0 1-53.149353-37.41561 62.934974 62.934974 0 0 1 12.47187-66.004973 55.387894 55.387894 0 0 1 62.679141-13.111452z" p-id="4277"></path></svg>